<?xml version="1.0" encoding="UTF-8" standalone="no"?>
<!-- Created with Inkscape (http://www.inkscape.org/) -->

<svg
   xmlns:dc="http://purl.org/dc/elements/1.1/"
   xmlns:cc="http://creativecommons.org/ns#"
   xmlns:rdf="http://www.w3.org/1999/02/22-rdf-syntax-ns#"
   xmlns:svg="http://www.w3.org/2000/svg"
   xmlns="http://www.w3.org/2000/svg"
   xmlns:sodipodi="http://sodipodi.sourceforge.net/DTD/sodipodi-0.dtd"
   xmlns:inkscape="http://www.inkscape.org/namespaces/inkscape"
   width="11.90625mm"
   height="11.925398mm"
   viewBox="0 0 11.90625 11.925398"
   version="1.1"
   id="svg1060"
   inkscape:version="0.92.4 (5da689c313, 2019-01-14)"
   sodipodi:docname="Compute_LF.svg">
  <defs
     id="defs1054" />
  <sodipodi:namedview
     id="base"
     pagecolor="#ffffff"
     bordercolor="#666666"
     borderopacity="1.0"
     inkscape:pageopacity="0.0"
     inkscape:pageshadow="2"
     inkscape:zoom="0.35"
     inkscape:cx="31.071429"
     inkscape:cy="-206.03524"
     inkscape:document-units="mm"
     inkscape:current-layer="layer1"
     showgrid="false"
     inkscape:window-width="1680"
     inkscape:window-height="987"
     inkscape:window-x="-8"
     inkscape:window-y="20"
     inkscape:window-maximized="1" />
  <metadata
     id="metadata1057">
    <rdf:RDF>
      <cc:Work
         rdf:about="">
        <dc:format>image/svg+xml</dc:format>
        <dc:type
           rdf:resource="http://purl.org/dc/dcmitype/StillImage" />
        <dc:title></dc:title>
      </cc:Work>
    </rdf:RDF>
  </metadata>
  <g
     inkscape:label="Layer 1"
     inkscape:groupmode="layer"
     id="layer1"
     transform="translate(-97.612351,-82.394444)">
    <g
       transform="translate(-22.938939,18.205984)"
       id="g1534">
      <path
         inkscape:connector-curvature="0"
         id="path4948"
         d="m 125.95842,64.18846 -0.0294,0.161975 c -0.0163,0.08915 -0.054,0.309278 -0.0836,0.489266 l -0.0538,0.327292 -0.18873,0.03373 c -0.0379,0.0068 -0.0766,0.01608 -0.11487,0.02401 -0.0913,0.01909 -0.17433,0.03387 -0.18111,0.031 -0.007,-0.0031 -0.12563,-0.18776 -0.26318,-0.410558 -0.13753,-0.222798 -0.25711,-0.408186 -0.26559,-0.411775 -0.008,-0.0036 -0.23997,0.08412 -0.5145,0.1951 l -0.49929,0.201783 0.10545,0.482885 0.10545,0.48258 -0.19175,0.12642 -0.0611,0.04042 c -0.023,0.01542 -0.0475,0.02987 -0.0699,0.04558 -0.0827,0.05805 -0.15656,0.10545 -0.16441,0.10545 -0.008,0 -0.18925,-0.123745 -0.40296,-0.275022 -0.21371,-0.151279 -0.39617,-0.275023 -0.40539,-0.275023 -0.009,0 -0.18791,0.171291 -0.39719,0.380777 l -0.38047,0.381081 0.28566,0.40296 0.28596,0.403265 -0.086,0.129458 c -0.008,0.01119 -0.0167,0.02222 -0.0243,0.03342 -0.0877,0.128139 -0.17256,0.234929 -0.18841,0.237339 -0.0159,0.0024 -0.23246,-0.04514 -0.48137,-0.105752 l -0.4528,-0.110315 -0.21576,0.508109 -0.21576,0.507803 0.3826,0.242505 c 0.21042,0.133377 0.39623,0.25605 0.41268,0.272592 0.0243,0.02442 0.021,0.06812 -0.0164,0.232172 -0.005,0.02029 -0.008,0.04174 -0.0122,0.0623 -2e-4,8.83e-4 -4.2e-4,0.0018 -5.9e-4,0.0028 -0.0305,0.150916 -0.0664,0.28093 -0.0799,0.289306 -0.0137,0.0084 -0.23161,0.04933 -0.48441,0.09086 l -0.45979,0.07537 v 0.551868 0.551868 l 0.44702,0.07385 c 0.24583,0.04048 0.46462,0.08055 0.48623,0.08934 0.0319,0.01298 0.0463,0.0544 0.076,0.220017 0.004,0.02132 0.009,0.04326 0.0137,0.06473 l 0.0386,0.20695 -0.0939,0.05713 c -0.0517,0.03142 -0.24087,0.147093 -0.42028,0.257092 l -0.32638,0.199962 0.20756,0.510842 0.20725,0.510842 0.46039,-0.103323 c 0.25309,-0.05684 0.46983,-0.10332 0.48167,-0.103323 0.0119,-4e-6 0.0956,0.112188 0.18629,0.249191 0.004,0.0062 0.009,0.01205 0.0128,0.01824 l 0.14617,0.220017 -0.0641,0.08934 c -0.0353,0.04916 -0.16445,0.229435 -0.28657,0.400833 l -0.22184,0.311793 0.3905,0.388982 0.3908,0.388982 0.38321,-0.275023 c 0.21071,-0.151268 0.39175,-0.278893 0.40266,-0.28353 0.0102,-0.0044 0.11931,0.0593 0.24463,0.141006 l 0.18325,0.126114 -0.10515,0.436693 c -0.058,0.240023 -0.10899,0.456498 -0.11335,0.481061 l -0.008,0.04467 0.50233,0.213331 0.50233,0.213334 0.0268,-0.03646 c 0.0147,-0.02016 0.13519,-0.208054 0.26773,-0.417245 l 0.24099,-0.380168 0.13826,0.03252 c 0.0962,0.02267 0.19441,0.04159 0.29356,0.05835 l 0.1483,0.03039 0.0738,0.44277 c 0.0405,0.243574 0.0783,0.462826 0.0839,0.487139 l 0.01,0.04406 h 0.54579 0.54579 l 0.0104,-0.04406 c 0.006,-0.02431 0.0434,-0.2443 0.0836,-0.488658 l 0.0729,-0.44429 0.13979,-0.02401 c 0.0494,-0.0085 0.0988,-0.01989 0.1483,-0.03008 0.10134,-0.01946 0.19683,-0.03578 0.2024,-0.03312 0.006,0.0031 0.12463,0.191726 0.26286,0.419068 l 0.25131,0.413293 0.51116,-0.204824 0.51114,-0.205127 -0.0817,-0.373483 c -0.0449,-0.205461 -0.0928,-0.421982 -0.10636,-0.48106 l -0.0246,-0.107275 0.23004,-0.15073 c 0.007,-0.0047 0.014,-0.0099 0.021,-0.01459 0.0159,-0.01054 0.0326,-0.02029 0.0484,-0.031 0.10107,-0.06889 0.18962,-0.124906 0.19661,-0.124595 0.007,3.85e-4 0.18959,0.127729 0.4057,0.282923 l 0.39294,0.282012 0.39019,-0.388374 0.3905,-0.388678 -0.22123,-0.311792 c -0.1217,-0.171527 -0.25039,-0.352061 -0.28596,-0.401138 l -0.0647,-0.08935 0.13158,-0.197226 c 0.007,-0.01087 0.0157,-0.02165 0.0228,-0.03251 0.092,-0.140709 0.12144,-0.173334 0.1559,-0.172915 0.0233,2.84e-4 0.24037,0.04919 0.48228,0.108491 l 0.43973,0.107881 0.21576,-0.508411 0.21607,-0.508108 -0.39081,-0.248583 c -0.2149,-0.136643 -0.39949,-0.259195 -0.41025,-0.272592 -0.012,-0.0148 0.002,-0.13106 0.0371,-0.299028 2e-4,-0.001 1.1e-4,-0.0015 3.1e-4,-0.0024 0.004,-0.02087 0.01,-0.0422 0.0134,-0.0629 0.0297,-0.165493 0.0438,-0.206933 0.0757,-0.220018 0.0216,-0.0089 0.2404,-0.04903 0.48623,-0.08904 l 0.44702,-0.07263 v -0.552247 -0.552169 l -0.45684,-0.07597 c -0.25124,-0.04173 -0.46927,-0.08244 -0.48442,-0.09056 -0.0168,-0.009 -0.0491,-0.122332 -0.0833,-0.292039 -0.003,-0.01364 -0.007,-0.02764 -0.009,-0.04133 l -0.0286,-0.152554 0.42058,-0.25922 0.4209,-0.259219 -0.20149,-0.499296 c -0.1107,-0.27464 -0.20849,-0.502578 -0.21729,-0.506283 -0.009,-0.0038 -0.20781,0.03549 -0.44245,0.08691 -0.23465,0.05143 -0.44799,0.09652 -0.47408,0.100285 -0.0423,0.0061 -0.0584,-0.01053 -0.1483,-0.153769 -0.0457,-0.07287 -0.094,-0.145105 -0.14495,-0.216675 -5.5e-4,-7.66e-4 -0.001,-0.0014 -0.002,-0.0021 l -0.0708,-0.10697 0.28567,-0.403265 0.28595,-0.40296 -0.38046,-0.381081 c -0.20928,-0.209486 -0.38855,-0.380777 -0.39811,-0.380777 -0.01,0 -0.17762,0.113754 -0.37348,0.252838 -0.19585,0.139086 -0.37434,0.264081 -0.39688,0.277758 -0.0366,0.02219 -0.0579,0.01313 -0.19662,-0.08357 -0.005,-0.0038 -0.0115,-0.0074 -0.017,-0.01125 -0.0276,-0.01897 -0.0548,-0.0392 -0.0827,-0.05743 l -0.15225,-0.09968 0.0784,-0.322124 c 0.0431,-0.177137 0.0947,-0.39446 0.11456,-0.482885 l 0.0362,-0.160759 -0.50264,-0.213332 -0.50233,-0.213332 -0.0906,0.137359 c -0.0499,0.07567 -0.17042,0.263765 -0.26803,0.417852 l -0.17747,0.280188 -0.18721,-0.04284 c -0.0375,-0.0086 -0.0766,-0.01484 -0.11486,-0.02248 -0.033,-0.0067 -0.0661,-0.01504 -0.0991,-0.02097 l -0.1793,-0.03222 -0.0538,-0.326987 c -0.0296,-0.179893 -0.067,-0.40012 -0.0833,-0.489265 l -0.0297,-0.161976 h -0.54579 z"
         style="opacity:1;vector-effect:none;fill:#0099dd;fill-opacity:1;stroke:none;stroke-width:0.00357002;stroke-linecap:butt;stroke-linejoin:miter;stroke-miterlimit:4;stroke-dasharray:none;stroke-dashoffset:0;stroke-opacity:1" />
      <text
         id="text4955"
         y="70.82444"
         x="125.57572"
         style="font-style:normal;font-variant:normal;font-weight:300;font-stretch:normal;font-size:1.92312586px;line-height:1.25;font-family:'Segoe UI';-inkscape-font-specification:'Segoe UI Light';font-variant-ligatures:normal;font-variant-position:normal;font-variant-caps:normal;font-variant-numeric:normal;font-variant-alternates:normal;font-feature-settings:normal;text-indent:0;text-align:start;text-decoration:none;text-decoration-line:none;text-decoration-style:solid;text-decoration-color:#000000;letter-spacing:0px;word-spacing:0px;text-transform:none;writing-mode:lr-tb;direction:ltr;text-orientation:mixed;dominant-baseline:auto;baseline-shift:baseline;text-anchor:start;white-space:normal;shape-padding:0;opacity:1;vector-effect:none;fill:#ffffff;fill-opacity:1;stroke:none;stroke-width:0.04807815;stroke-linecap:butt;stroke-linejoin:miter;stroke-miterlimit:4;stroke-dasharray:none;stroke-dashoffset:0;stroke-opacity:1"
         xml:space="preserve"><tspan
           style="font-style:normal;font-variant:normal;font-weight:300;font-stretch:normal;font-size:1.92312586px;line-height:1.25;font-family:'Segoe UI';-inkscape-font-specification:'Segoe UI Light';font-variant-ligatures:normal;font-variant-position:normal;font-variant-caps:normal;font-variant-numeric:normal;font-variant-alternates:normal;font-feature-settings:normal;text-indent:0;text-align:start;text-decoration:none;text-decoration-line:none;text-decoration-style:solid;text-decoration-color:#000000;letter-spacing:0px;word-spacing:0px;text-transform:none;writing-mode:lr-tb;direction:ltr;text-orientation:mixed;dominant-baseline:auto;baseline-shift:baseline;text-anchor:start;white-space:normal;shape-padding:0;vector-effect:none;fill:#ffffff;fill-opacity:1;stroke:none;stroke-width:0.04807815;stroke-linecap:butt;stroke-linejoin:miter;stroke-miterlimit:4;stroke-dasharray:none;stroke-dashoffset:0;stroke-opacity:1"
           y="70.82444"
           x="125.57572"
           id="tspan4953"
           sodipodi:role="line">LF</tspan></text>
    </g>
  </g>
</svg>
